<mxfile host="app.diagrams.net" modified="2024-01-23T03:02:40.178Z" agent="Mozilla/5.0 (Windows NT 10.0; Win64; x64) AppleWebKit/537.36 (KHTML, like Gecko) Chrome/120.0.0.0 Safari/537.36" etag="QmbfIZhKqnAdzn4wW3ag" version="22.1.21" type="github">
  <diagram name="第 1 页" id="hlG76i1ach3pxdMZAlBc">
    <mxGraphModel dx="521" dy="751" grid="1" gridSize="10" guides="1" tooltips="1" connect="1" arrows="1" fold="1" page="1" pageScale="1" pageWidth="827" pageHeight="1169" math="0" shadow="0">
      <root>
        <mxCell id="0" />
        <mxCell id="1" parent="0" />
        <mxCell id="ccq3bl2aHLUg3mwa5-VJ-1" value="g01" style="ellipse;whiteSpace=wrap;html=1;aspect=fixed;" vertex="1" parent="1">
          <mxGeometry x="150" y="50" width="80" height="80" as="geometry" />
        </mxCell>
        <mxCell id="ccq3bl2aHLUg3mwa5-VJ-2" value="g02" style="ellipse;whiteSpace=wrap;html=1;aspect=fixed;" vertex="1" parent="1">
          <mxGeometry x="280" y="40" width="80" height="80" as="geometry" />
        </mxCell>
        <mxCell id="ccq3bl2aHLUg3mwa5-VJ-3" value="r01" style="ellipse;whiteSpace=wrap;html=1;aspect=fixed;" vertex="1" parent="1">
          <mxGeometry x="150" y="200" width="80" height="80" as="geometry" />
        </mxCell>
        <mxCell id="ccq3bl2aHLUg3mwa5-VJ-4" value="c02" style="ellipse;whiteSpace=wrap;html=1;aspect=fixed;" vertex="1" parent="1">
          <mxGeometry x="310" y="200" width="80" height="80" as="geometry" />
        </mxCell>
        <mxCell id="ccq3bl2aHLUg3mwa5-VJ-5" value="c04" style="ellipse;whiteSpace=wrap;html=1;aspect=fixed;" vertex="1" parent="1">
          <mxGeometry x="150" y="320" width="80" height="80" as="geometry" />
        </mxCell>
        <mxCell id="ccq3bl2aHLUg3mwa5-VJ-6" value="g01" style="ellipse;whiteSpace=wrap;html=1;aspect=fixed;" vertex="1" parent="1">
          <mxGeometry x="430" y="320" width="80" height="80" as="geometry" />
        </mxCell>
        <mxCell id="ccq3bl2aHLUg3mwa5-VJ-7" value="g01" style="ellipse;whiteSpace=wrap;html=1;aspect=fixed;" vertex="1" parent="1">
          <mxGeometry x="120" y="420" width="80" height="80" as="geometry" />
        </mxCell>
        <mxCell id="ccq3bl2aHLUg3mwa5-VJ-8" value="g01" style="ellipse;whiteSpace=wrap;html=1;aspect=fixed;" vertex="1" parent="1">
          <mxGeometry x="410" y="440" width="80" height="80" as="geometry" />
        </mxCell>
        <mxCell id="ccq3bl2aHLUg3mwa5-VJ-9" value="g01" style="ellipse;whiteSpace=wrap;html=1;aspect=fixed;" vertex="1" parent="1">
          <mxGeometry x="90" y="510" width="80" height="80" as="geometry" />
        </mxCell>
      </root>
    </mxGraphModel>
  </diagram>
</mxfile>
